<svg width="626" height="256" viewBox="0 0 626 256" fill="none" xmlns="http://www.w3.org/2000/svg">
<g clip-path="url(#clip0_10605_15663)">
<g opacity="0.27" filter="url(#filter0_f_10605_15663)">
<path d="M237.069 74.2204C237.069 74.2204 217.924 86.2673 218.351 102.353C218.778 118.439 235.067 123.878 234.78 133.02C234.493 142.162 210.63 168.167 227.703 185.023C244.776 201.879 281.834 186.241 296.17 187.207C310.506 188.173 314.503 207.507 335.076 207.507C355.649 207.507 362.18 187.571 373.198 167.852C384.215 148.133 421.301 171.849 425.697 147.223C430.093 122.597 412.397 114.407 417.787 95.3464C423.177 76.2854 409.905 51.2884 385.272 40.6344C360.64 29.9805 366.569 -8.14848 332.332 1.56751C298.095 11.2835 244.664 8.3715 243.733 52.7094C243.404 68.4314 237.069 74.2204 237.069 74.2204Z" fill="#FFC73B"/>
</g>
<g opacity="0.22" filter="url(#filter1_f_10605_15663)">
<path d="M326.836 183.917C312.696 183.966 310.435 173.165 299.305 169.917C289.911 167.173 276.87 173.578 266.944 173.333C256.346 173.074 245.832 170.435 239.532 161.069C230.068 147.02 241.268 137.388 242.437 124.256C243.172 115.968 233.12 109.402 232.833 98.8675C232.448 84.6365 242.465 82.2635 248.023 71.8405C253.098 62.3345 250.683 50.6866 257.662 41.0406C265.439 30.2886 278.445 25.8436 290.751 22.7566C314.992 16.6736 338.484 7.58763 355.151 30.1976C363.677 41.7546 369.718 44.1976 380.428 53.6195C395.373 66.7865 393.777 78.0355 395.576 95.8435C397.872 118.67 411.879 145.83 377.873 149.218C362.949 150.702 364.573 148.861 356.208 162.77C349.432 173.956 341.123 183.987 326.836 183.917Z" fill="#BC8600"/>
</g>
<path opacity="0.46" d="M257.277 229.565C223.845 241.388 245.293 256.865 297.128 254.198C348.963 251.531 384.124 262.115 405.208 246.281C426.292 230.447 379.525 224.392 331.526 224.448C283.527 224.504 270.955 224.735 257.277 229.565Z" fill="url(#paint0_linear_10605_15663)"/>
<path d="M321.67 35.4058C284.059 35.4058 265.089 59.5137 260.91 89.4107C256.731 119.308 253.84 127.344 240.982 112.56C228.123 97.7757 222.978 116.76 236.782 131.201C250.585 145.642 256.066 144.382 254.463 165.921C252.86 187.46 249.668 208.999 265.768 208.354C281.868 207.71 282.484 191.317 291.486 191.317C300.488 191.317 301.447 211.273 317.841 208.368C334.235 205.463 328.551 192.269 341.956 190.351C346.457 189.707 346.156 205.464 365.42 204.497C384.684 203.531 380.211 192.283 386.315 188.104C392.419 183.925 400.462 195.804 410.745 187.782C421.028 179.76 411.067 173.313 414.945 163.982C418.823 154.651 414.945 144.697 409.807 144.697C404.669 144.697 399.839 154.665 393.413 153.377C386.987 152.089 383.767 142.765 383.767 129.577C383.767 116.389 391.103 35.4058 321.67 35.4058Z" fill="#EBB82A"/>
<path d="M249.451 119.559C247.204 118.859 244.46 116.557 240.982 112.56C228.123 97.7685 222.978 116.759 236.782 131.2C239.057 133.587 241.108 135.54 242.935 137.241C245.238 135.316 249.423 130.325 249.451 119.559Z" fill="#F2BC36"/>
<path d="M294.503 94.5553C298.141 94.5553 301.09 91.6062 301.09 87.9683C301.09 84.3304 298.141 81.3813 294.503 81.3813C290.865 81.3813 287.916 84.3304 287.916 87.9683C287.916 91.6062 290.865 94.5553 294.503 94.5553Z" fill="#B89021"/>
<path d="M332.366 94.5553C336.004 94.5553 338.953 91.6062 338.953 87.9683C338.953 84.3304 336.004 81.3813 332.366 81.3813C328.728 81.3813 325.779 84.3304 325.779 87.9683C325.779 91.6062 328.728 94.5553 332.366 94.5553Z" fill="#B89021"/>
<path d="M312.984 136.352C315.825 136.352 318.129 129.946 318.129 122.044C318.129 114.142 315.825 107.736 312.984 107.736C310.142 107.736 307.839 114.142 307.839 122.044C307.839 129.946 310.142 136.352 312.984 136.352Z" fill="#B89021"/>
<path d="M352.296 118.222C352.296 118.222 359.681 138.172 359.52 149.785C359.359 161.398 369.068 158.535 371.133 155.987C373.198 153.439 376.649 144.248 377.23 135.687L352.296 118.222Z" fill="#EBB82A"/>
<path d="M352.296 117.957C352.296 117.957 363.384 132.146 363.384 143.758C363.384 155.371 374.465 152.368 376.579 139.174C378.693 125.979 374.969 117.957 374.969 117.957H352.296Z" fill="#EBB82A"/>
<path d="M233.398 104.728L239.507 103.746L243.839 130.7C243.904 131.103 243.889 131.515 243.794 131.912C243.7 132.309 243.528 132.684 243.289 133.014C243.05 133.345 242.748 133.626 242.401 133.84C242.053 134.054 241.667 134.197 241.264 134.262C240.861 134.327 240.449 134.312 240.052 134.217C239.655 134.123 239.28 133.951 238.949 133.712C238.619 133.473 238.338 133.171 238.124 132.823C237.91 132.476 237.767 132.089 237.702 131.687L233.37 104.732L233.398 104.728Z" fill="#232B41"/>
<path d="M215.333 110.116L187.872 76.4254L203.391 35.8185L246.364 28.9165L273.825 62.6074L258.306 103.207L215.333 110.116Z" fill="#E5EAF7"/>
<path d="M216.593 106.812L191.372 75.8582L205.624 38.5622L245.097 32.2202L270.325 63.1742L256.073 100.463L216.593 106.812Z" fill="#D15B2D"/>
<path d="M311.457 140.811C311.457 140.811 318.457 142.435 321.691 136.345C321.691 136.345 321.201 143.086 316.574 144.381C311.947 145.676 311.457 140.811 311.457 140.811Z" fill="#B89021"/>
<path d="M377.229 135.659C377.229 135.659 377.068 124.662 374.968 118.467C373.688 114.655 371.876 111.042 369.585 107.736C369.585 107.736 377.6 127.462 377.229 135.659Z" fill="#D9E0F3"/>
<path d="M415.463 150.156L415.148 149.379C413.923 146.579 411.956 144.703 409.751 144.703C404.606 144.703 399.783 154.671 393.357 153.383C386.931 152.095 383.711 142.771 383.711 129.583C383.711 121.491 386.511 87.8424 372.588 63.0834L368.941 57.3574C368.941 57.3574 380.526 78.3084 380.526 100.295C380.526 122.282 375.934 156.099 389.948 158.283C403.962 160.467 406.664 141.308 415.463 150.156Z" fill="#FFDB92"/>
<path d="M386.28 188.103C392.391 183.903 400.602 195.803 410.885 187.781C416.016 183.756 416.268 180.165 415.568 176.406C414.168 184.323 405.285 185.212 394.904 182.006C384.523 178.8 380.393 184.022 377.313 193.549C374.233 203.076 357.853 196.139 347.465 188.964C337.077 181.789 335.04 189.797 322.545 196.076C310.05 202.355 307.054 188.376 294.545 185.8C282.036 183.224 273.615 200.178 262.94 199.31C255.142 198.68 254.379 177.106 254.54 165.556V165.885C252.93 187.424 249.717 208.963 265.789 208.319C281.861 207.675 282.505 191.281 291.507 191.281C300.509 191.281 301.468 211.238 317.862 208.333C334.256 205.428 328.572 192.233 341.977 190.315C346.478 189.671 346.177 205.428 365.441 204.462C384.705 203.496 380.176 192.282 386.28 188.103Z" fill="#F2BC36"/>
<path d="M113.408 187.634H9.80779L0.0078125 145.76L110.965 13.7056H170.878V143.31H198.079V187.634H170.878V229.207H113.408V187.634ZM113.408 143.618V82.1795L62.3637 143.618H113.408Z" fill="#EBB82A"/>
<path d="M540.665 187.634H437.066L427.266 145.76L538.215 13.7056H598.128V143.31H625.337V187.634H598.128V229.207H540.665V187.634ZM540.665 143.618V82.1795L489.615 143.618H540.665Z" fill="#EBB82A"/>
<path d="M211.752 69.9663C211.603 69.4297 211.304 69.046 210.857 68.8151C210.414 68.5783 209.833 68.5257 209.113 68.6573C208.637 68.7444 208.252 68.879 207.957 69.0611C207.662 69.2432 207.455 69.4579 207.337 69.7051C207.217 69.9475 207.18 70.208 207.226 70.4867C207.258 70.7166 207.339 70.9094 207.47 71.0648C207.606 71.2194 207.783 71.3459 208.001 71.4445C208.223 71.5371 208.482 71.6077 208.778 71.6561C209.074 71.7045 209.402 71.7341 209.763 71.745L211.127 71.803C211.911 71.8288 212.615 71.9255 213.241 72.093C213.871 72.2597 214.416 72.4956 214.877 72.8009C215.343 73.1053 215.723 73.4845 216.016 73.9383C216.309 74.3922 216.514 74.9237 216.63 75.5329C216.801 76.4961 216.71 77.3665 216.355 78.144C215.999 78.9215 215.404 79.5763 214.569 80.1085C213.738 80.6398 212.688 81.0216 211.418 81.2539C210.143 81.4871 208.997 81.4994 207.98 81.2908C206.962 81.0821 206.12 80.6365 205.451 79.954C204.783 79.2714 204.333 78.3362 204.1 77.1485L207.627 76.5033C207.746 76.9889 207.953 77.3741 208.246 77.6588C208.539 77.9436 208.904 78.1331 209.342 78.2273C209.784 78.3206 210.276 78.3178 210.816 78.2189C211.313 78.1282 211.722 77.9841 212.045 77.7867C212.372 77.5883 212.609 77.3528 212.754 77.0803C212.898 76.8077 212.945 76.5172 212.894 76.2087C212.836 75.922 212.702 75.6928 212.491 75.5211C212.28 75.3446 211.979 75.215 211.59 75.1324C211.205 75.044 210.722 74.9861 210.143 74.9588L208.483 74.878C207.108 74.8168 205.98 74.5183 205.097 73.9826C204.214 73.4419 203.669 72.5932 203.463 71.4365C203.285 70.495 203.387 69.6228 203.768 68.82C204.15 68.0173 204.755 67.3349 205.585 66.7729C206.416 66.2109 207.408 65.8242 208.564 65.6128C209.745 65.3969 210.806 65.4104 211.747 65.6534C212.693 65.8905 213.472 66.3246 214.085 66.9559C214.698 67.5871 215.096 68.3755 215.279 69.3211L211.752 69.9663ZM216.56 67.4565L216.013 64.4655L228.892 62.1094L229.439 65.1005L224.819 65.9457L227.059 78.1926L223.428 78.8568L221.188 66.6099L216.56 67.4565ZM245.771 66.8956C246.078 68.5722 246.016 70.0523 245.584 71.3359C245.152 72.6195 244.441 73.6646 243.451 74.4712C242.465 75.2769 241.291 75.8045 239.927 76.0541C238.558 76.3045 237.269 76.2249 236.061 75.8154C234.853 75.4058 233.821 74.6796 232.964 73.6369C232.111 72.5883 231.531 71.2282 231.225 69.5566C230.919 67.88 230.979 66.4004 231.405 65.1176C231.837 63.834 232.545 62.7894 233.531 61.9837C234.517 61.178 235.694 60.6499 237.063 60.3995C238.427 60.1499 239.712 60.2275 240.919 60.6321C242.131 61.0358 243.166 61.7615 244.024 62.8092C244.882 63.8569 245.465 65.219 245.771 66.8956ZM242.007 67.5843C241.825 66.5923 241.53 65.7799 241.122 65.1471C240.719 64.5134 240.223 64.0685 239.633 63.8125C239.047 63.5556 238.388 63.4943 237.654 63.6286C236.924 63.762 236.329 64.0529 235.868 64.5012C235.406 64.9496 235.097 65.5419 234.939 66.2781C234.787 67.0135 234.801 67.8772 234.983 68.8692C235.164 69.8613 235.457 70.6741 235.86 71.3078C236.267 71.9406 236.767 72.385 237.357 72.641C237.947 72.897 238.607 72.9583 239.336 72.8249C240.07 72.6906 240.665 72.3998 241.122 71.9523C241.583 71.5039 241.89 70.9121 242.043 70.1768C242.2 69.4405 242.188 68.5764 242.007 67.5843ZM249.315 74.1212L246.528 58.8833L252.822 57.7318C253.963 57.5231 254.989 57.5662 255.899 57.8611C256.813 58.1501 257.568 58.6501 258.165 59.3612C258.76 60.0673 259.154 60.9437 259.345 61.9903C259.538 63.0419 259.476 64.0042 259.158 64.8773C258.846 65.7445 258.304 66.4714 257.535 67.0581C256.766 67.6448 255.798 68.0448 254.633 68.2581L250.749 68.9686L250.218 66.0668L253.417 65.4815C253.973 65.3799 254.419 65.1983 254.756 64.9368C255.097 64.6744 255.333 64.3519 255.463 63.9693C255.592 63.5817 255.614 63.1548 255.529 62.6885C255.442 62.2173 255.271 61.8283 255.015 61.5214C254.758 61.2096 254.424 60.9939 254.013 60.8744C253.601 60.7548 253.12 60.7454 252.569 60.8462L250.754 61.1783L252.998 73.4475L249.315 74.1212Z" fill="white"/>
</g>
<defs>
<filter id="filter0_f_10605_15663" x="216.944" y="-1.40244" width="210.862" height="210.31" filterUnits="userSpaceOnUse" color-interpolation-filters="sRGB">
<feFlood flood-opacity="0" result="BackgroundImageFix"/>
<feBlend mode="normal" in="SourceGraphic" in2="BackgroundImageFix" result="shape"/>
<feGaussianBlur stdDeviation="0.699999" result="effect1_foregroundBlur_10605_15663"/>
</filter>
<filter id="filter1_f_10605_15663" x="231.422" y="14.3085" width="170.352" height="171.009" filterUnits="userSpaceOnUse" color-interpolation-filters="sRGB">
<feFlood flood-opacity="0" result="BackgroundImageFix"/>
<feBlend mode="normal" in="SourceGraphic" in2="BackgroundImageFix" result="shape"/>
<feGaussianBlur stdDeviation="0.699999" result="effect1_foregroundBlur_10605_15663"/>
</filter>
<linearGradient id="paint0_linear_10605_15663" x1="325.499" y1="264.249" x2="325.814" y2="224.448" gradientUnits="userSpaceOnUse">
<stop stop-color="white"/>
<stop offset="0.01"/>
<stop offset="1" stop-color="#C39000"/>
</linearGradient>
<clipPath id="clip0_10605_15663">
<rect width="625.33" height="255.234" fill="white"/>
</clipPath>
</defs>
</svg>
